<svg width="225" height="298" viewBox="0 0 225 298" fill="none" xmlns="http://www.w3.org/2000/svg">
<path d="M0.904297 259.476L36.3329 201.952C45.6028 209.191 54.2376 215.097 62.2376 219.668C70.3647 224.24 78.2376 227.604 85.8567 229.762C93.6028 231.795 101.476 232.81 109.476 232.81C117.349 232.81 124.079 231.92 129.666 230.143C135.253 228.238 139.508 225.571 142.428 222.143C145.476 218.586 147 214.396 147 209.571C147 203.476 144.841 198.271 140.523 193.952C136.206 189.635 130.428 185.762 123.19 182.333C116.079 178.905 108.269 175.476 99.7614 172.048C90.6186 168.365 81.2853 164.302 71.7614 159.857C62.2376 155.286 53.4757 149.762 45.4757 143.286C37.4757 136.81 30.9995 128.937 26.0472 119.667C21.0948 110.27 18.6186 98.8414 18.6186 85.381C18.6186 67.6033 23.0629 52.4286 31.9519 39.8572C40.9677 27.1587 53.2219 17.5081 68.7138 10.9048C84.3329 4.17475 101.984 0.80957 121.666 0.80957C136.015 0.80957 151.19 2.71433 167.192 6.52386C183.192 10.3334 199.38 16.3015 215.761 24.4286L186.428 85C177.285 79.4128 167.252 74.9682 156.333 71.6667C145.539 68.2381 135.634 66.5239 126.619 66.5239C120.396 66.5239 114.936 67.3492 110.238 69C105.666 70.6509 102.111 73.0634 99.571 76.2381C97.0314 79.2858 95.7614 82.9048 95.7614 87.0953C95.7614 92.6825 97.9201 97.6349 102.238 101.952C106.555 106.143 112.269 110.016 119.38 113.571C126.491 117.127 134.238 120.746 142.619 124.429C151.761 128.365 161.096 132.746 170.617 137.571C180.269 142.397 189.095 148.111 197.095 154.714C205.223 161.318 211.76 169.254 216.715 178.524C221.665 187.667 224.142 198.652 224.142 211.476C224.142 228.619 219.443 243.729 210.047 256.81C200.776 269.762 187.763 279.859 171.001 287.094C154.365 294.335 135 297.952 112.904 297.952C92.3329 297.952 72.5233 294.652 53.4757 288.048C34.4281 281.443 16.9043 271.92 0.904297 259.476Z" fill="black"/>
</svg>
